<svg id="Layer_1" data-name="Layer 1" xmlns="http://www.w3.org/2000/svg" xmlns:xlink="http://www.w3.org/1999/xlink" viewBox="0 0 60 60"><defs><style>.cls-1{fill:none;}.cls-2{fill:#bdfffc;}.cls-3{clip-path:url(#clip-path);}.cls-4{fill:url(#linear-gradient);}.cls-5{clip-path:url(#clip-path-2);}.cls-6{fill:url(#linear-gradient-2);}.cls-7{clip-path:url(#clip-path-3);}.cls-8{fill:url(#linear-gradient-3);}</style><clipPath id="clip-path"><polygon class="cls-1" points="30.57 29.36 36.89 40.04 32.27 37.41 36.76 45.19 48.42 45.19 41.28 34.48 30.57 29.36"/></clipPath><linearGradient id="linear-gradient" x1="-219.65" y1="281.27" x2="-219.38" y2="281.27" gradientTransform="matrix(0, -194.69, -194.69, 0, 54799.36, -42708.79)" gradientUnits="userSpaceOnUse"><stop offset="0" stop-color="#00e9d9"/><stop offset="0" stop-color="#00e9d9"/><stop offset="0.32" stop-color="#005b7b"/><stop offset="0.63" stop-color="#003544"/><stop offset="1" stop-color="#002b29"/></linearGradient><clipPath id="clip-path-2"><path class="cls-1" d="M20,29l11,5.85-5.95-11,12.36,7c.6.38,2,1.21,4,2.26l.06,0h0c1.82.94,4.17,2,7,3.15l8,3.17c-.17-.08-4.2-2-8.8-4.89A42.62,42.62,0,0,1,35.89,23.49l-6.33-11Z"/></clipPath><linearGradient id="linear-gradient-2" x1="-219.64" y1="281.41" x2="-219.37" y2="281.41" gradientTransform="matrix(0, -197.23, -197.23, 0, 55539.4, -43269.85)" xlink:href="#linear-gradient"/><clipPath id="clip-path-3"><path class="cls-1" d="M11.9,27.17A71.49,71.49,0,0,1,18.3,32L10.7,45.19H22.35l5.84-10.1-2.88-1.64a122.44,122.44,0,0,0-14.11-8L3.34,21.87c.16.09,4.09,2.24,8.56,5.3"/></clipPath><linearGradient id="linear-gradient-3" x1="-219.65" y1="281.14" x2="-219.38" y2="281.14" gradientTransform="matrix(0, -194.69, -194.69, 0, 54749.15, -42689.91)" xlink:href="#linear-gradient"/></defs><title>logo</title><circle class="cls-2" cx="30" cy="30" r="30"/><g class="cls-3"><rect class="cls-4" x="28.28" y="25.66" width="22.43" height="23.24" transform="matrix(0.48, -0.88, 0.88, 0.48, -12.13, 54.15)"/></g><g class="cls-5"><rect class="cls-6" x="17.69" y="3.57" width="41.15" height="44.93" transform="translate(-2.89 47.2) rotate(-61.44)"/></g><g class="cls-7"><rect class="cls-8" x="-0.42" y="17.04" width="32.36" height="32.97" transform="translate(-21.22 31.35) rotate(-61.44)"/></g></svg>